<svg width="64" height="64" viewBox="0 0 64 64" fill="none" xmlns="http://www.w3.org/2000/svg">
<g id="vuesax/linear/message-question" opacity="0.5">
<g id="vuesax/linear/message-question_2">
<g id="message-question">
<path id="Vector" d="M45.3335 49.1468H34.6668L22.8001 57.04C21.0401 58.2134 18.6668 56.9602 18.6668 54.8268V49.1468C10.6668 49.1468 5.3335 43.8135 5.3335 35.8135V19.8133C5.3335 11.8133 10.6668 6.47998 18.6668 6.47998H45.3335C53.3335 6.47998 58.6668 11.8133 58.6668 19.8133V35.8135C58.6668 43.8135 53.3335 49.1468 45.3335 49.1468Z" stroke="#8D929F" stroke-width="3" stroke-miterlimit="10" stroke-linecap="round" stroke-linejoin="round"/>
<path id="Vector_2" d="M31.9998 30.2935V29.7336C31.9998 27.9202 33.1199 26.9602 34.2399 26.1868C35.3332 25.4402 36.4264 24.4802 36.4264 22.7202C36.4264 20.2669 34.4532 18.2935 31.9998 18.2935C29.5465 18.2935 27.5732 20.2669 27.5732 22.7202" stroke="#8D929F" stroke-width="3" stroke-linecap="round" stroke-linejoin="round"/>
<path id="Vector_3" d="M31.9878 36.6665H32.0118" stroke="#8D929F" stroke-width="3" stroke-linecap="round" stroke-linejoin="round"/>
</g>
</g>
</g>
</svg>
