<svg width="64" height="64" viewBox="0 0 64 64" fill="none" xmlns="http://www.w3.org/2000/svg">
<g id="Group 161">
<path id="Union" opacity="0.5" fill-rule="evenodd" clip-rule="evenodd" d="M34.894 2.43934C35.4798 1.85355 36.4295 1.85355 37.0153 2.43934L55.4001 20.8241C55.9859 21.4099 55.9859 22.3596 55.4001 22.9454C54.8143 23.5312 53.8646 23.5312 53.2788 22.9454L51.6893 21.3559C51.3706 21.9567 50.8864 22.8072 50.2041 23.8534C48.9791 25.7317 47.1161 28.2399 44.4272 31.0641L61.0573 47.6942C61.643 48.2799 61.643 49.2297 61.0573 49.8155C60.4715 50.4013 59.5217 50.4013 58.9359 49.8155L42.3059 33.1854C39.4814 35.8747 36.973 37.7379 35.0946 38.9629C34.0485 39.6452 33.198 40.1293 32.5973 40.448L34.1872 42.038C34.773 42.6238 34.773 43.5735 34.1872 44.1593C33.6014 44.7451 32.6517 44.7451 32.0659 44.1593L13.6811 25.7745C13.0953 25.1887 13.0953 24.239 13.6811 23.6532C14.2669 23.0674 15.2167 23.0674 15.8024 23.6532L17.3923 25.2431C17.711 24.6424 18.1951 23.792 18.8772 22.7462C20.2553 20.633 22.4411 17.7225 25.702 14.4616C28.963 11.2007 31.8735 9.01482 33.9866 7.63669C35.0331 6.95422 35.8838 6.46993 36.4846 6.15125L34.894 4.56066C34.3082 3.97487 34.3082 3.02513 34.894 2.43934ZM38.7235 8.3902L49.4825 19.1492L49.4254 19.172L49.4251 19.1728L49.4246 19.1737L49.4116 19.2029C49.3986 19.2317 49.377 19.2788 49.3462 19.3434C49.2845 19.4727 49.1863 19.672 49.0472 19.9347C48.7691 20.4599 48.3281 21.2382 47.6912 22.2146C46.4177 24.1674 44.3609 26.9137 41.2579 30.0167C38.1548 33.1198 35.4085 35.1766 33.4558 36.4501C32.4793 37.0869 31.7011 37.528 31.1758 37.8061C30.9132 37.9451 30.7138 38.0434 30.5845 38.105C30.5199 38.1358 30.4728 38.1575 30.4441 38.1705L30.4149 38.1835L30.4139 38.1839L30.4131 38.1843L30.4125 38.1846L30.4115 38.185L30.411 38.1852C30.3932 38.1929 30.3757 38.2008 30.3583 38.2091L19.5994 27.4501L19.6558 27.4276L19.6561 27.4268L19.6566 27.4259L19.6696 27.3967C19.6826 27.368 19.7043 27.3209 19.7351 27.2562C19.7967 27.1269 19.895 26.9276 20.034 26.6649C20.3121 26.1397 20.7532 25.3615 21.39 24.385C22.6635 22.4323 24.7203 19.6859 27.8234 16.5829C30.9264 13.4798 33.6727 11.423 35.6254 10.1495C36.6019 9.51268 37.3801 9.07161 37.9054 8.79352C38.168 8.65448 38.3674 8.5562 38.4967 8.49458C38.5613 8.46378 38.6084 8.44214 38.6372 8.42915L38.6663 8.41611L38.6673 8.41566L38.6681 8.41533L38.6687 8.41504L38.6697 8.41461L38.6702 8.41439C38.6882 8.40664 38.706 8.39857 38.7235 8.3902ZM9.30846 49.7852C8.34381 49.7852 7.46522 50.3401 7.05085 51.2113L3.24545 59.2113C2.45633 60.8702 3.666 62.7852 5.50305 62.7852H40.337C42.174 62.7852 43.3837 60.8702 42.5946 59.2113L38.7892 51.2113C38.3748 50.3401 37.4962 49.7852 36.5316 49.7852H9.30846ZM6.29457 59.7852L9.6243 52.7852H36.2157L39.5454 59.7852H6.29457Z" fill="#8D929F"/>
</g>
</svg>
