<svg width="58" height="58" viewBox="0 0 58 58" fill="none" xmlns="http://www.w3.org/2000/svg">
<g id="vuesax/linear/routing" opacity="0.5">
<g id="vuesax/linear/routing_2">
<g id="routing">
<path id="Vector" d="M5.00231 11.1165C6.93564 2.7548 19.5265 2.7548 21.4356 11.1165C22.5715 16.0223 19.454 20.179 16.7473 22.7648C14.7656 24.6498 11.6481 24.6256 9.66648 22.7648C6.98398 20.179 3.86648 16.0223 5.00231 11.1165Z" stroke="#8D929F" stroke-width="3"/>
<path id="Vector_2" d="M36.4192 40.1165C38.3525 31.7548 51.0158 31.7548 52.9492 40.1165C54.085 45.0223 50.9675 49.179 48.2367 51.7648C46.255 53.6498 43.1133 53.6256 41.1317 51.7648C38.4008 49.179 35.2833 45.0223 36.4192 40.1165Z" stroke="#8D929F" stroke-width="3"/>
<path id="Vector_3" d="M29.0001 12.0835H35.4768C39.9476 12.0835 42.0259 17.6177 38.6668 20.566L19.3576 37.4585C15.9984 40.3827 18.0768 45.9168 22.5234 45.9168H29.0001" stroke="#8D929F" stroke-width="3" stroke-linecap="round" stroke-linejoin="round"/>
<path id="Vector_4" d="M13.2585 13.2918H13.2864" stroke="#8D929F" stroke-width="3" stroke-linecap="round" stroke-linejoin="round"/>
<path id="Vector_5" d="M44.675 42.2918H44.7029" stroke="#8D929F" stroke-width="3" stroke-linecap="round" stroke-linejoin="round"/>
</g>
</g>
</g>
</svg>
