<?xml version="1.0" encoding="utf-8"?>
<!-- Generator: Adobe Illustrator 22.0.0, SVG Export Plug-In . SVG Version: 6.00 Build 0)  -->
<svg version="1.1" id="Слой_1" xmlns="http://www.w3.org/2000/svg" xmlns:xlink="http://www.w3.org/1999/xlink" x="0px" y="0px"
	 viewBox="0 0 28 28" style="enable-background:new 0 0 28 28;" xml:space="preserve">
<style type="text/css">
	.st0{fill:none;stroke:#477EEC;stroke-width:1.5;stroke-linecap:round;stroke-linejoin:round;}
	.st1{fill:none;stroke:#477EEC;stroke-width:2;stroke-linecap:round;stroke-linejoin:round;}
</style>
<path class="st0" d="M4.7,17.1l-1.8-1.8c-0.7-0.7-0.7-1.9,0-2.6l1.8-1.8C5,10.6,5.2,10,5.2,9.6V7.1c0-1,0.8-1.9,1.9-1.9h2.5
	c0.4,0,1-0.2,1.3-0.5l1.8-1.8c0.7-0.7,1.9-0.7,2.6,0l1.8,1.8C17.4,5,18,5.2,18.4,5.2h2.5c1,0,1.9,0.8,1.9,1.9v2.5
	c0,0.4,0.2,1,0.5,1.3l1.8,1.8c0.7,0.7,0.7,1.9,0,2.6l-1.8,1.8c-0.3,0.3-0.5,0.9-0.5,1.3v2.5c0,1-0.8,1.9-1.9,1.9h-2.5
	c-0.4,0-1,0.2-1.3,0.5l-1.8,1.8c-0.7,0.7-1.9,0.7-2.6,0l-1.8-1.8c-0.3-0.3-0.9-0.5-1.3-0.5H7.1c-1,0-1.9-0.8-1.9-1.9v-2.5
	C5.2,18,5,17.4,4.7,17.1z"/>
<path class="st0" d="M10.5,17.5l7-7"/>
<path class="st1" d="M16.9,16.9L16.9,16.9"/>
<path class="st1" d="M11.1,11.1L11.1,11.1"/>
</svg>
