<svg width="90" height="104" viewBox="0 0 90 104" fill="none" xmlns="http://www.w3.org/2000/svg">
<path d="M84.8215 24.1939C79.6654 23.0909 74.9963 20.3699 71.495 16.4274C67.9937 12.485 65.8432 7.52721 65.3569 2.27689V0H47.5704V70.5887C47.5594 73.7138 46.5695 76.7568 44.7398 79.2903C42.9101 81.8237 40.3326 83.7202 37.3695 84.7132C34.4064 85.7062 31.2067 85.7459 28.2199 84.8265C25.2331 83.9072 22.6094 82.0752 20.7175 79.5879C18.7963 77.0589 17.7305 73.9837 17.6748 70.8082C17.6191 67.6328 18.5763 64.5221 20.4076 61.9273C22.2389 59.3325 24.8491 57.3884 27.8598 56.3771C30.8704 55.3658 34.1249 55.3397 37.1514 56.3027V38.2321C30.4026 37.2992 23.5309 38.499 17.4976 41.6638C11.4643 44.8286 6.57107 49.8001 3.50238 55.8828C0.433691 61.9656 -0.656984 68.8554 0.382916 75.5886C1.42282 82.3218 4.54128 88.5615 9.30211 93.4351C13.8422 98.0805 19.6637 101.268 26.0233 102.59C32.383 103.912 38.9923 103.309 45.0077 100.858C51.0231 98.4064 56.1716 94.2184 59.7961 88.828C63.4206 83.4376 65.3566 77.0895 65.3569 70.5939V34.5251C72.5451 39.664 81.1638 42.4195 90 42.4038V24.7308C88.2598 24.733 86.5242 24.553 84.8215 24.1939Z" fill="white"/>
</svg>
