<svg width="96" height="96" viewBox="0 0 96 96" fill="none" xmlns="http://www.w3.org/2000/svg">
<path d="M48.0045 0C34.9684 0 33.3324 0.0570009 28.2123 0.290001C23.1022 0.524001 19.6142 1.333 16.5622 2.52C13.4051 3.746 10.7271 5.386 8.05908 8.055C5.38906 10.723 3.74904 13.401 2.51903 16.557C1.32901 19.61 0.519005 23.099 0.289003 28.207C0.0600002 33.327 0 34.964 0 48C0 61.036 0.0580015 62.667 0.290004 67.787C0.525006 72.897 1.33401 76.385 2.52003 79.437C3.74704 82.594 5.38706 85.272 8.05608 87.94C10.7231 90.61 13.4011 92.254 16.5562 93.48C19.6102 94.667 23.0992 95.476 28.2083 95.71C33.3283 95.943 34.9634 96 47.9985 96C61.0356 96 62.6667 95.943 67.7867 95.71C72.8968 95.476 76.3888 94.667 79.4428 93.48C82.5989 92.254 85.2729 90.61 87.9399 87.94C90.61 85.272 92.25 82.594 93.48 79.438C94.66 76.385 95.47 72.896 95.71 67.788C95.94 62.668 96 61.036 96 48C96 34.964 95.94 33.328 95.71 28.208C95.47 23.098 94.66 19.61 93.48 16.558C92.25 13.401 90.61 10.723 87.9399 8.055C85.2699 5.385 82.5999 3.745 79.4398 2.52C76.3798 1.333 72.8898 0.524001 67.7797 0.290001C62.6597 0.0570009 61.0296 0 47.9895 0H48.0045ZM43.6985 8.65C44.9765 8.648 46.4025 8.65 48.0045 8.65C60.8206 8.65 62.3397 8.696 67.4007 8.926C72.0808 9.14 74.6208 9.922 76.3128 10.579C78.5528 11.449 80.1498 12.489 81.8289 14.169C83.5089 15.849 84.5489 17.449 85.4209 19.689C86.0779 21.379 86.8609 23.919 87.0739 28.599C87.3039 33.659 87.3539 35.179 87.3539 47.989C87.3539 60.799 87.3039 62.319 87.0739 67.379C86.8599 72.059 86.0779 74.599 85.4209 76.289C84.5509 78.529 83.5089 80.124 81.8289 81.803C80.1488 83.483 78.5538 84.523 76.3128 85.393C74.6228 86.053 72.0808 86.833 67.4007 87.047C62.3407 87.277 60.8206 87.327 48.0045 87.327C35.1874 87.327 33.6684 87.277 28.6083 87.047C23.9283 86.831 21.3882 86.049 19.6952 85.392C17.4552 84.522 15.8552 83.482 14.1751 81.802C12.4951 80.122 11.4551 78.526 10.5831 76.285C9.9261 74.595 9.1431 72.055 8.93009 67.375C8.70009 62.315 8.65409 60.795 8.65409 47.977C8.65409 35.159 8.70009 33.647 8.93009 28.587C9.1441 23.907 9.9261 21.367 10.5831 19.675C11.4531 17.435 12.4951 15.835 14.1751 14.155C15.8552 12.475 17.4552 11.435 19.6952 10.563C21.3872 9.903 23.9283 9.123 28.6083 8.908C33.0363 8.708 34.7524 8.66 43.6985 8.65ZM73.6268 16.62C70.4467 16.62 67.8667 19.197 67.8667 22.378C67.8667 25.558 70.4467 28.138 73.6268 28.138C76.8068 28.138 79.3868 25.558 79.3868 22.378C79.3868 19.198 76.8068 16.618 73.6268 16.618V16.62ZM48.0045 23.35C34.3914 23.35 23.3542 34.387 23.3542 48C23.3542 61.613 34.3914 72.645 48.0045 72.645C61.6176 72.645 72.6508 61.613 72.6508 48C72.6508 34.387 61.6176 23.35 48.0045 23.35ZM48.0045 32C56.8406 32 64.0047 39.163 64.0047 48C64.0047 56.836 56.8406 64 48.0045 64C39.1674 64 32.0043 56.836 32.0043 48C32.0043 39.163 39.1674 32 48.0045 32Z" fill="white"/>
</svg>
