<svg width="96" height="78" viewBox="0 0 96 78" fill="none" xmlns="http://www.w3.org/2000/svg">
<path d="M5.88552 33.8024L63.0695 10.7644C68.7143 8.36458 87.8574 0.685229 87.8574 0.685229C87.8574 0.685229 96.6927 -2.67449 95.9564 5.48483C95.711 8.84454 93.7476 20.6035 91.7842 33.3225L85.6486 70.9993C85.6486 70.9993 85.1577 76.5189 80.9855 77.4788C76.8133 78.4387 69.9414 74.1191 68.7143 73.1591C67.7326 72.4392 50.3074 61.6401 43.9264 56.3605C42.2084 54.9207 40.245 52.0409 44.1718 48.6812C53.0071 40.7619 63.5603 30.9227 69.9414 24.6832C72.8865 21.8035 75.8316 15.084 63.5603 23.2433L28.9554 46.0414C28.9554 46.0414 25.0287 48.4412 17.6659 46.2814C10.3032 44.1216 1.7133 41.2418 1.7133 41.2418C1.7133 41.2418 -4.1769 37.6421 5.88552 33.8024Z" fill="white"/>
</svg>
