<svg width="47" height="49" viewBox="0 0 47 49" fill="none" xmlns="http://www.w3.org/2000/svg">
<path id="Union" opacity="0.6" fill-rule="evenodd" clip-rule="evenodd" d="M25.029 0.673715C25.6148 0.0879284 26.5645 0.0879284 27.1503 0.673715L41.5134 15.0368C42.0992 15.6226 42.0992 16.5724 41.5134 17.1581C40.9276 17.7439 39.9779 17.7439 39.3921 17.1581L38.4606 16.2266C38.2203 16.6571 37.9026 17.1925 37.4968 17.8147C36.5636 19.2458 35.1642 21.1353 33.1665 23.2624L45.9331 36.029C46.5189 36.6148 46.5189 37.5646 45.9331 38.1504C45.3473 38.7361 44.3976 38.7361 43.8118 38.1504L31.0452 25.3838C28.9179 27.3817 27.0281 28.7813 25.597 29.7146C24.9748 30.1204 24.4394 30.438 24.009 30.6783L24.9409 31.6102C25.5266 32.1959 25.5267 33.1457 24.9409 33.7315C24.3551 34.3173 23.4053 34.3173 22.8195 33.7315L8.45644 19.3684C7.87065 18.7826 7.87065 17.8328 8.45644 17.247C9.04222 16.6613 9.99197 16.6613 10.5778 17.247L11.5096 18.1789C11.7499 17.7485 12.0674 17.2132 12.473 16.5912C13.5611 14.9228 15.2829 12.6309 17.8478 10.0661C20.4126 7.50123 22.7045 5.77944 24.3729 4.69132C24.9953 4.28541 25.5308 3.96774 25.9614 3.72741L25.029 2.79504C24.4432 2.20925 24.4432 1.2595 25.029 0.673715ZM28.1828 5.94887L36.2391 14.0051C36.1924 14.1021 36.1228 14.2417 36.0282 14.4204C35.8154 14.8225 35.4758 15.4218 34.984 16.1759C34.0005 17.684 32.4078 19.8115 30.0008 22.2185C27.5938 24.6255 25.4662 26.2183 23.9582 27.2018C23.204 27.6936 22.6047 28.0332 22.2027 28.246C22.0241 28.3406 21.8844 28.4101 21.7875 28.4568L13.731 20.4003C13.7777 20.3034 13.8472 20.1639 13.9416 19.9855C14.1545 19.5835 14.494 18.9841 14.9859 18.23C15.9693 16.722 17.5621 14.5944 19.9691 12.1874C22.3761 9.78041 24.5037 8.18764 26.0117 7.20415C26.7658 6.71233 27.3652 6.37276 27.7672 6.15993C27.9461 6.06522 28.0859 5.99562 28.1828 5.94887ZM5.41049 37.5665C4.44584 37.5665 3.56726 38.1215 3.15289 38.9926L0.388026 44.8051C-0.401087 46.4641 0.808578 48.379 2.64563 48.379H29.167C31.0041 48.379 32.2138 46.4641 31.4246 44.8051L28.6598 38.9926C28.2454 38.1215 27.3668 37.5665 26.4022 37.5665H5.41049ZM3.43715 45.379L5.72634 40.5665H26.0863L28.3755 45.379H3.43715Z" fill="#477EEC"/>
</svg>
