<svg width="48" height="48" viewBox="0 0 48 48" fill="none" xmlns="http://www.w3.org/2000/svg">
<g clip-path="url(#clip0_1777_1834)">
<mask id="mask0_1777_1834" style="mask-type:alpha" maskUnits="userSpaceOnUse" x="0" y="0" width="48" height="48">
<circle cx="24" cy="24" r="24" fill="#D9D9D9"/>
</mask>
<g mask="url(#mask0_1777_1834)">
<path d="M24.0071 0C13.9876 0 11.0573 0.010339 10.4877 0.0576031C8.43155 0.228566 7.15208 0.552399 5.75817 1.24659C4.68394 1.78016 3.83674 2.39865 3.00062 3.26565C1.47787 4.84679 0.554997 6.792 0.220916 9.10425C0.0584898 10.2268 0.0112386 10.4557 0.00164067 16.1894C-0.00205083 18.1007 0.00164067 20.616 0.00164067 23.9899C0.00164067 34.0039 0.0127152 36.9321 0.0607047 37.5007C0.226822 39.5021 0.5406 40.7612 1.20507 42.1385C2.47495 44.775 4.90026 46.7542 7.75749 47.4927C8.74681 47.7475 9.83949 47.8878 11.2423 47.9542C11.8366 47.9801 17.8943 47.9985 23.9558 47.9985C30.0172 47.9985 36.0787 47.9912 36.6583 47.9616C38.2825 47.8852 39.2257 47.7585 40.2685 47.489C43.1442 46.7468 45.5252 44.7971 46.821 42.1238C47.4725 40.7797 47.8029 39.4725 47.9524 37.5757C47.9849 37.1621 47.9985 30.5684 47.9985 23.9836C47.9985 17.3976 47.9838 10.8161 47.9513 10.4025C47.7999 8.47505 47.4696 7.17897 46.797 5.80905C46.2451 4.68764 45.6323 3.85018 44.7426 2.99389C43.1549 1.477 41.2132 0.553876 38.8994 0.220074C37.7783 0.0579724 37.5549 0.00996977 31.8183 0H24.0071Z" fill="url(#paint0_radial_1777_1834)"/>
<path d="M24.0071 0C13.9876 0 11.0573 0.010339 10.4877 0.0576031C8.43155 0.228566 7.15208 0.552399 5.75817 1.24659C4.68394 1.78016 3.83674 2.39865 3.00062 3.26565C1.47787 4.84679 0.554997 6.792 0.220916 9.10425C0.0584898 10.2268 0.0112386 10.4557 0.00164067 16.1894C-0.00205083 18.1007 0.00164067 20.616 0.00164067 23.9899C0.00164067 34.0039 0.0127152 36.9321 0.0607047 37.5007C0.226822 39.5021 0.5406 40.7612 1.20507 42.1385C2.47495 44.775 4.90026 46.7542 7.75749 47.4927C8.74681 47.7475 9.83949 47.8878 11.2423 47.9542C11.8366 47.9801 17.8943 47.9985 23.9558 47.9985C30.0172 47.9985 36.0787 47.9912 36.6583 47.9616C38.2825 47.8852 39.2257 47.7585 40.2685 47.489C43.1442 46.7468 45.5252 44.7971 46.821 42.1238C47.4725 40.7797 47.8029 39.4725 47.9524 37.5757C47.9849 37.1621 47.9985 30.5684 47.9985 23.9836C47.9985 17.3976 47.9838 10.8161 47.9513 10.4025C47.7999 8.47505 47.4696 7.17897 46.797 5.80905C46.2451 4.68764 45.6323 3.85018 44.7426 2.99389C43.1549 1.477 41.2132 0.553876 38.8994 0.220074C37.7783 0.0579724 37.5549 0.00996977 31.8183 0H24.0071Z" fill="url(#paint1_radial_1777_1834)"/>
</g>
<path d="M24.0011 12C20.7421 12 20.3331 12.0143 19.0531 12.0725C17.7756 12.131 16.9036 12.3333 16.1405 12.63C15.3513 12.9365 14.6818 13.3465 14.0148 14.0138C13.3473 14.6808 12.9373 15.3502 12.6298 16.1392C12.3323 16.9025 12.1298 17.7748 12.0723 19.0518C12.015 20.3318 12 20.741 12 24C12 27.259 12.0145 27.6668 12.0725 28.9468C12.1313 30.2243 12.3335 31.0962 12.63 31.8592C12.9368 32.6485 13.3468 33.318 14.014 33.985C14.6808 34.6525 15.3503 35.0635 16.139 35.37C16.9026 35.6668 17.7748 35.869 19.0521 35.9275C20.3321 35.9857 20.7408 36 23.9996 36C27.2589 36 27.6667 35.9857 28.9467 35.9275C30.2242 35.869 31.0972 35.6668 31.8607 35.37C32.6497 35.0635 33.3182 34.6525 33.985 33.985C34.6525 33.318 35.0625 32.6485 35.37 31.8595C35.665 31.0963 35.8675 30.224 35.9275 28.947C35.985 27.667 36 27.259 36 24C36 20.741 35.985 20.332 35.9275 19.052C35.8675 17.7745 35.665 16.9025 35.37 16.1395C35.0625 15.3502 34.6525 14.6808 33.985 14.0138C33.3175 13.3463 32.65 12.9363 31.86 12.63C31.0949 12.3333 30.2224 12.131 28.9449 12.0725C27.6649 12.0143 27.2574 12 23.9974 12H24.0011ZM22.9246 14.1625C23.2441 14.162 23.6006 14.1625 24.0011 14.1625C27.2052 14.1625 27.5849 14.174 28.8502 14.2315C30.0202 14.285 30.6552 14.4805 31.0782 14.6448C31.6382 14.8623 32.0375 15.1222 32.4572 15.5422C32.8772 15.9622 33.1372 16.3622 33.3552 16.9222C33.5195 17.3447 33.7152 17.9797 33.7685 19.1497C33.826 20.4147 33.8385 20.7947 33.8385 23.9972C33.8385 27.1997 33.826 27.5797 33.7685 28.8447C33.715 30.0147 33.5195 30.6498 33.3552 31.0723C33.1377 31.6323 32.8772 32.031 32.4572 32.4508C32.0372 32.8708 31.6385 33.1307 31.0782 33.3482C30.6557 33.5132 30.0202 33.7082 28.8502 33.7617C27.5852 33.8192 27.2052 33.8318 24.0011 33.8318C20.7968 33.8318 20.4171 33.8192 19.1521 33.7617C17.9821 33.7077 17.3471 33.5122 16.9238 33.348C16.3638 33.1305 15.9638 32.8705 15.5438 32.4505C15.1238 32.0305 14.8638 31.6315 14.6458 31.0713C14.4815 30.6488 14.2858 30.0137 14.2325 28.8438C14.175 27.5788 14.1635 27.1987 14.1635 23.9942C14.1635 20.7897 14.175 20.4118 14.2325 19.1468C14.286 17.9768 14.4815 17.3417 14.6458 16.9187C14.8633 16.3587 15.1238 15.9587 15.5438 15.5387C15.9638 15.1187 16.3638 14.8587 16.9238 14.6407C17.3468 14.4757 17.9821 14.2808 19.1521 14.227C20.2591 14.177 20.6881 14.162 22.9246 14.1595V14.1625ZM30.4067 16.155C29.6117 16.155 28.9667 16.7992 28.9667 17.5945C28.9667 18.3895 29.6117 19.0345 30.4067 19.0345C31.2017 19.0345 31.8467 18.3895 31.8467 17.5945C31.8467 16.7995 31.2017 16.1545 30.4067 16.1545V16.155ZM24.0011 17.8375C20.5978 17.8375 17.8386 20.5968 17.8386 24C17.8386 27.4032 20.5978 30.1612 24.0011 30.1612C27.4044 30.1612 30.1627 27.4032 30.1627 24C30.1627 20.5968 27.4044 17.8375 24.0011 17.8375ZM24.0011 20C26.2101 20 28.0012 21.7908 28.0012 24C28.0012 26.209 26.2101 28 24.0011 28C21.7919 28 20.0011 26.209 20.0011 24C20.0011 21.7908 21.7919 20 24.0011 20Z" fill="white"/>
</g>
<defs>
<radialGradient id="paint0_radial_1777_1834" cx="0" cy="0" r="1" gradientUnits="userSpaceOnUse" gradientTransform="translate(12.7497 51.6954) rotate(-90) scale(47.5701 44.2439)">
<stop stop-color="#FFDD55"/>
<stop offset="0.1" stop-color="#FFDD55"/>
<stop offset="0.5" stop-color="#FF543E"/>
<stop offset="1" stop-color="#C837AB"/>
</radialGradient>
<radialGradient id="paint1_radial_1777_1834" cx="0" cy="0" r="1" gradientUnits="userSpaceOnUse" gradientTransform="translate(-8.04001 3.45773) rotate(78.6806) scale(21.264 87.6513)">
<stop stop-color="#3771C8"/>
<stop offset="0.128" stop-color="#3771C8"/>
<stop offset="1" stop-color="#6600FF" stop-opacity="0"/>
</radialGradient>
<clipPath id="clip0_1777_1834">
<rect width="48" height="47.9985" fill="white"/>
</clipPath>
</defs>
</svg>
