<svg width="48" height="48" viewBox="0 0 48 48" fill="none" xmlns="http://www.w3.org/2000/svg">
<rect width="48" height="48" rx="24" fill="url(#paint0_linear_1741_2165)"/>
<path d="M12.3488 23.8391L25.4534 18.4963C26.747 17.9398 31.134 16.1589 31.134 16.1589C31.134 16.1589 33.1587 15.3798 32.99 17.272C32.9338 18.0511 32.4838 20.7781 32.0339 23.7277L30.6278 32.4653C30.6278 32.4653 30.5153 33.7453 29.5592 33.9679C28.603 34.1906 27.0282 33.1888 26.747 32.9662C26.522 32.7992 22.5288 30.2948 21.0665 29.0705C20.6728 28.7365 20.2228 28.0687 21.1227 27.2896C23.1475 25.453 25.5659 23.1712 27.0282 21.7242C27.7032 21.0564 28.3781 19.4981 25.5659 21.3903L17.6356 26.6774C17.6356 26.6774 16.7357 27.2339 15.0484 26.733C13.3611 26.2321 11.3926 25.5643 11.3926 25.5643C11.3926 25.5643 10.0428 24.7295 12.3488 23.8391Z" fill="white"/>
<defs>
<linearGradient id="paint0_linear_1741_2165" x1="48" y1="-2.86102e-06" x2="2.86102e-06" y2="48" gradientUnits="userSpaceOnUse">
<stop stop-color="#38AFE2"/>
<stop offset="1" stop-color="#1F97C9"/>
</linearGradient>
</defs>
</svg>
