<svg width="48" height="48" viewBox="0 0 48 48" fill="none" xmlns="http://www.w3.org/2000/svg">
<g clip-path="url(#clip0_1777_3601)">
<mask id="mask0_1777_3601" style="mask-type:alpha" maskUnits="userSpaceOnUse" x="0" y="0" width="48" height="48">
<circle cx="24" cy="24" r="24" fill="#D9D9D9"/>
</mask>
<g mask="url(#mask0_1777_3601)">
<path d="M24.0071 0C13.9876 0 11.0573 0.010339 10.4877 0.0576031C8.43155 0.228566 7.15208 0.552399 5.75817 1.24659C4.68394 1.78016 3.83674 2.39865 3.00062 3.26565C1.47787 4.84679 0.554997 6.792 0.220916 9.10425C0.0584898 10.2268 0.0112386 10.4557 0.00164067 16.1894C-0.00205083 18.1007 0.00164067 20.616 0.00164067 23.9899C0.00164067 34.0039 0.0127152 36.9321 0.0607047 37.5007C0.226822 39.5021 0.5406 40.7612 1.20507 42.1385C2.47495 44.775 4.90026 46.7542 7.75749 47.4927C8.74681 47.7475 9.83949 47.8878 11.2423 47.9542C11.8366 47.9801 17.8943 47.9985 23.9558 47.9985C30.0172 47.9985 36.0787 47.9912 36.6583 47.9616C38.2825 47.8852 39.2257 47.7585 40.2685 47.489C43.1442 46.7468 45.5252 44.7971 46.821 42.1238C47.4725 40.7797 47.8029 39.4725 47.9524 37.5757C47.9849 37.1621 47.9985 30.5684 47.9985 23.9836C47.9985 17.3976 47.9838 10.8161 47.9513 10.4025C47.7999 8.47505 47.4696 7.17897 46.797 5.80905C46.2451 4.68764 45.6323 3.85018 44.7426 2.99389C43.1549 1.477 41.2132 0.553876 38.8994 0.220074C37.7783 0.0579724 37.5549 0.00996977 31.8183 0H24.0071Z" fill="black"/>
</g>
<path d="M35.9994 18.032V22.3243C35.7687 22.3243 35.4917 22.3705 35.2148 22.3705C33.1379 22.3705 31.1994 21.5859 29.7225 20.3397V29.4782C29.7225 31.3243 29.1225 33.0782 28.061 34.4628C26.584 36.4474 24.184 37.7859 21.4609 37.7859C18.5071 37.7859 15.9225 36.2167 14.4917 33.909C15.9686 35.2936 17.9532 36.1705 20.1225 36.1705C22.7994 36.1705 25.1994 34.8782 26.6763 32.8474C27.6917 31.4628 28.3379 29.7551 28.3379 27.8628V18.6782C29.8148 19.9705 31.7071 20.7089 33.8302 20.7089C34.1071 20.7089 34.3379 20.7089 34.6148 20.6628V17.8936C35.0302 17.9859 35.3994 18.032 35.8148 18.032H35.9994Z" fill="#FF004F"/>
<path d="M22.615 21.2161V25.9699C22.2919 25.8776 21.9227 25.8315 21.5996 25.8315C19.5689 25.8315 17.9073 27.5392 17.9073 29.6161C17.9073 30.0776 17.9996 30.493 18.1381 30.9084C17.215 30.2161 16.5688 29.1084 16.5688 27.8622C16.5688 25.7853 18.2304 24.0776 20.2612 24.0776C20.6304 24.0776 20.9535 24.1238 21.2765 24.2161V21.1699C21.3689 21.1699 21.4612 21.1699 21.5535 21.1699C21.9227 21.1699 22.2919 21.1699 22.615 21.2161Z" fill="#FF004F"/>
<path d="M30.4155 14.6162C29.5847 13.8777 28.9847 12.8623 28.6616 11.8008H29.7693C29.7693 12.0316 29.7693 12.2162 29.7693 12.4469C29.8616 13.1854 30.0924 13.9239 30.4155 14.6162Z" fill="#FF004F"/>
<path d="M34.6613 17.9383V20.7075C34.4305 20.7537 34.1536 20.7537 33.8766 20.7537C31.7997 20.7537 29.8613 19.9691 28.3843 18.7229V27.8614C28.3843 29.7075 27.7843 31.4614 26.7228 32.846C25.1997 34.8768 22.8459 36.1691 20.1689 36.1691C17.9997 36.1691 16.0151 35.2922 14.5381 33.9075C13.7535 32.6152 13.292 31.1383 13.292 29.5229C13.292 25.046 16.8458 21.3998 21.2766 21.2614V24.3075C20.9535 24.2152 20.5843 24.1691 20.2612 24.1691C18.2305 24.1691 16.5689 25.8768 16.5689 27.9537C16.5689 29.1998 17.1689 30.3537 18.1382 30.9998C18.6458 32.4306 20.0305 33.4922 21.5997 33.4922C23.6305 33.4922 25.292 31.7845 25.292 29.7075V11.7998H28.6613C28.9843 12.9075 29.5843 13.8767 30.4151 14.6152C31.2459 16.2767 32.8151 17.5229 34.6613 17.9383Z" fill="white"/>
<path d="M21.2769 19.6001V21.1694C16.8462 21.3078 13.2923 24.954 13.2923 29.4309C13.2923 31.0463 13.7538 32.5232 14.5385 33.8155C12.9692 32.2925 12 30.1694 12 27.7694C12 23.2001 15.6923 19.5078 20.2154 19.5078C20.5846 19.5078 20.9539 19.554 21.2769 19.6001Z" fill="#00F7EF"/>
<path d="M28.6613 11.8H25.292V29.6154C25.292 31.6923 23.6305 33.4 21.5997 33.4C19.9843 33.4 18.6459 32.3847 18.1382 30.9077C18.7382 31.3231 19.4766 31.6 20.2613 31.6C22.292 31.6 23.9536 29.9385 23.9536 27.8616V10H28.4305V10.0923C28.4305 10.2769 28.4305 10.4615 28.4767 10.6462C28.4767 11.0154 28.569 11.4308 28.6613 11.8Z" fill="#00F7EF"/>
<path d="M34.6615 16.2306V17.8922C32.8153 17.5229 31.2461 16.2768 30.3691 14.6152C31.523 15.6768 32.9999 16.2768 34.6615 16.2306Z" fill="#00F7EF"/>
</g>
<defs>
<clipPath id="clip0_1777_3601">
<rect width="48" height="47.9985" fill="white"/>
</clipPath>
</defs>
</svg>
