<svg width="48" height="48" viewBox="0 0 48 48" fill="none" xmlns="http://www.w3.org/2000/svg">
<rect width="48" height="48" rx="24" fill="#7F40BD"/>
<g clip-path="url(#clip0_1741_2157)">
<path d="M31.8193 22.2319C31.8457 19.1301 29.204 16.2867 25.9304 15.8935C25.8653 15.8858 25.7944 15.874 25.7193 15.8616C25.5572 15.8347 25.3896 15.8071 25.2206 15.8071C24.5496 15.8071 24.3703 16.2784 24.3231 16.5595C24.2771 16.8328 24.321 17.0623 24.453 17.2419C24.6752 17.544 25.0661 17.5977 25.3801 17.6407C25.4722 17.6534 25.559 17.6652 25.6317 17.6815C28.5729 18.3388 29.5632 19.372 30.0472 22.2881C30.059 22.3594 30.0644 22.4472 30.07 22.5403C30.0911 22.8889 30.1351 23.6141 30.9148 23.6141H30.9149C30.9799 23.6141 31.0496 23.6085 31.1222 23.5975C31.8483 23.4871 31.8255 22.8242 31.8146 22.5057C31.8115 22.416 31.8086 22.3311 31.8162 22.2747C31.8182 22.2605 31.8192 22.2461 31.8193 22.2319Z" fill="white"/>
<path d="M25.03 14.7551C25.1171 14.7614 25.1996 14.7674 25.2683 14.7779C30.098 15.5207 32.3191 17.8089 32.9346 22.6764C32.945 22.7591 32.9467 22.86 32.9484 22.9669C32.9545 23.3471 32.9672 24.1383 33.8168 24.1546L33.8432 24.1549C34.1096 24.1549 34.3216 24.0746 34.4732 23.9159C34.7376 23.6393 34.7192 23.2283 34.7043 22.898C34.7007 22.817 34.6972 22.7407 34.6981 22.6739C34.7595 17.6957 30.4504 13.1816 25.4767 13.0137C25.4561 13.0131 25.4364 13.0142 25.4165 13.017C25.4067 13.0184 25.3886 13.0202 25.3576 13.0202C25.308 13.0202 25.247 13.0159 25.1823 13.0115C25.104 13.0061 25.0153 13 24.9255 13C24.1334 13 23.9828 13.563 23.9636 13.8986C23.9191 14.6742 24.6694 14.7288 25.03 14.7551Z" fill="white"/>
<path d="M32.7016 28.9673C32.5989 28.8889 32.4928 28.8077 32.3934 28.7276C31.8661 28.3033 31.3051 27.9121 30.7625 27.5338C30.6499 27.4554 30.5373 27.3769 30.4251 27.2982C29.7301 26.81 29.1053 26.5728 28.515 26.5728C27.7199 26.5728 27.0268 27.0121 26.4546 27.8784C26.2012 28.2624 25.8936 28.4491 25.5147 28.4491C25.2906 28.4491 25.0359 28.3852 24.7579 28.259C22.5146 27.2417 20.9128 25.6821 19.9969 23.6233C19.5541 22.6282 19.6976 21.9778 20.4769 21.4484C20.9194 21.1481 21.7431 20.5889 21.6848 19.5182C21.6187 18.3023 18.9358 14.6436 17.8054 14.2281C17.3268 14.0521 16.824 14.0505 16.3081 14.224C15.0086 14.6609 14.076 15.4281 13.611 16.4425C13.1617 17.4228 13.182 18.5737 13.6697 19.771C15.0798 23.2326 17.0622 26.2508 19.5622 28.7413C22.0093 31.1793 25.0169 33.1764 28.5015 34.6769C28.8156 34.812 29.145 34.8857 29.3856 34.9395C29.4676 34.9579 29.5383 34.9736 29.5899 34.9878C29.6183 34.9955 29.6475 34.9997 29.6769 34.9999L29.7044 35.0001C29.7045 35.0001 29.7044 35.0001 29.7045 35.0001C31.3434 35.0001 33.3114 33.5024 33.9158 31.795C34.4453 30.3 33.4785 29.5611 32.7016 28.9673Z" fill="white"/>
<path d="M25.755 18.7093C25.4744 18.7164 24.8904 18.7309 24.6856 19.3257C24.5897 19.6036 24.6012 19.8449 24.7197 20.0429C24.8937 20.3334 25.227 20.4225 25.5301 20.4713C26.6295 20.6477 27.1941 21.2557 27.307 22.3844C27.3595 22.9106 27.7139 23.2781 28.1689 23.2781H28.169C28.2026 23.2781 28.237 23.2762 28.2713 23.272C28.8185 23.2069 29.0838 22.8048 29.0599 22.077C29.0686 21.3175 28.6711 20.4552 27.9951 19.7683C27.3166 19.0794 26.4988 18.6914 25.755 18.7093Z" fill="white"/>
</g>
<defs>
<clipPath id="clip0_1741_2157">
<rect width="22" height="22" fill="white" transform="translate(13 13)"/>
</clipPath>
</defs>
</svg>
