<svg width="48" height="48" viewBox="0 0 48 48" fill="none" xmlns="http://www.w3.org/2000/svg">
<rect width="48" height="48" rx="24" fill="url(#paint0_linear_1741_2152)"/>
<path d="M19.1808 31.9738L19.5739 32.2068C21.2256 33.187 23.1192 33.7054 25.0502 33.7064H25.0545C30.985 33.7064 35.8117 28.8808 35.8139 22.9499C35.8148 20.0756 34.6968 17.3732 32.6654 15.3399C30.6338 13.307 27.9327 12.1866 25.0583 12.1854C19.1233 12.1854 14.2966 17.0103 14.2944 22.9411C14.2936 24.9735 14.8621 26.9529 15.9393 28.6653L16.1954 29.0723L15.1082 33.0415L19.1808 31.9738ZM12.0002 36.1161L13.8367 29.4102C12.704 27.4476 12.108 25.2212 12.109 22.9405C12.1117 15.8051 17.9186 10 25.0547 10C28.5175 10.0015 31.7677 11.3492 34.2119 13.7953C36.6557 16.2414 38.0012 19.493 38.0001 22.951C37.9971 30.086 32.189 35.8922 25.0547 35.8922C25.055 35.8922 25.0542 35.8922 25.0547 35.8922H25.0492C22.8827 35.8915 20.7538 35.348 18.8631 34.3168L12.0002 36.1161Z" fill="white"/>
<path d="M12.555 22.9475C12.5542 25.1491 13.1294 27.2985 14.2233 29.1933L12.4502 35.6671L19.0751 33.93C20.9004 34.9247 22.9555 35.4498 25.047 35.4505H25.0524C31.9401 35.4505 37.5463 29.8457 37.5493 22.9573C37.5506 19.6191 36.2518 16.4806 33.8922 14.1189C31.533 11.7575 28.3953 10.4564 25.0519 10.4548C18.1639 10.4548 12.558 16.0588 12.555 22.9475ZM25.0524 35.4505C25.0523 35.4505 25.0522 35.4505 25.0524 35.4505Z" fill="url(#paint1_linear_1741_2152)"/>
<path d="M12.1087 22.9434C12.108 25.224 12.7039 27.4507 13.8367 29.4131L12 36.1186L18.8626 34.3192C20.7535 35.3504 22.8822 35.8938 25.0487 35.8947H25.0543C32.1885 35.8947 37.9966 30.0884 37.9996 22.9534C38.0008 19.4952 36.6553 16.2438 34.2114 13.7978C31.7671 11.3518 28.5171 10.0039 25.0543 10.0024C17.9185 10.0024 12.1115 15.8076 12.1085 22.943M16.1953 29.075L15.9391 28.6681C14.8619 26.9555 14.2934 24.9761 14.2941 22.9439C14.2965 17.0134 19.1231 12.1882 25.0581 12.1882C27.9322 12.1893 30.6333 13.3098 32.6651 15.3427C34.6967 17.3757 35.8146 20.0784 35.8138 22.9524C35.8112 28.8832 30.9845 33.7088 25.054 33.7088H25.0498C23.1188 33.7077 21.225 33.1894 19.5734 32.2093L19.1803 31.9763L15.1078 33.0441L16.1953 29.075ZM25.0543 35.8947C25.0541 35.8947 25.054 35.8947 25.0543 35.8947Z" fill="url(#paint2_linear_1741_2152)"/>
<path fill-rule="evenodd" clip-rule="evenodd" d="M21.8187 17.5325C21.5764 16.9938 21.3214 16.983 21.0909 16.9736C20.9023 16.9655 20.6865 16.9661 20.471 16.9661C20.2553 16.9661 19.9049 17.047 19.6085 17.3707C19.312 17.6944 18.4763 18.4769 18.4763 20.0683C18.4763 21.6598 19.6356 23.1976 19.7971 23.4136C19.9588 23.6292 22.0348 26.9995 25.3223 28.2959C28.0547 29.3734 28.6108 29.1591 29.2038 29.1051C29.7969 29.0513 31.1176 28.3229 31.3871 27.5676C31.6567 26.8123 31.6567 26.165 31.5758 26.0298C31.495 25.895 31.2792 25.814 30.9558 25.6524C30.6322 25.4906 29.042 24.708 28.7456 24.6C28.449 24.4922 28.2334 24.4384 28.0176 24.7622C27.802 25.0857 27.1825 25.814 26.9937 26.0298C26.8051 26.2459 26.6163 26.2729 26.2929 26.1111C25.9693 25.9488 24.9275 25.6076 23.6917 24.5058C22.7301 23.6484 22.0809 22.5897 21.8921 22.2658C21.7035 21.9424 21.872 21.7672 22.0342 21.6059C22.1795 21.4609 22.3578 21.2282 22.5195 21.0394C22.6809 20.8505 22.7348 20.7157 22.8426 20.5C22.9505 20.2841 22.8966 20.0952 22.8157 19.9334C22.7348 19.7716 22.1064 18.1721 21.8187 17.5325Z" fill="white"/>
<defs>
<linearGradient id="paint0_linear_1741_2152" x1="48" y1="-2.86102e-06" x2="2.86102e-06" y2="48" gradientUnits="userSpaceOnUse">
<stop stop-color="#56D062"/>
<stop offset="1" stop-color="#28B53E"/>
</linearGradient>
<linearGradient id="paint1_linear_1741_2152" x1="24.9999" y1="35.6645" x2="24.9999" y2="10.4522" gradientUnits="userSpaceOnUse">
<stop stop-color="#20B038"/>
<stop offset="1" stop-color="#60D66A"/>
</linearGradient>
<linearGradient id="paint2_linear_1741_2152" x1="25" y1="36.1193" x2="25" y2="10.0032" gradientUnits="userSpaceOnUse">
<stop stop-color="#F9F9F9"/>
<stop offset="1" stop-color="white"/>
</linearGradient>
</defs>
</svg>
