<svg xmlns="http://www.w3.org/2000/svg" width="144" height="25" viewBox="-0.5 3 144 25" enable-background="new -0.5 3 144 25"><path fill="#477EEE" d="M37.028 11.631c-.781-.789-1.632-1.38-2.552-1.774-.92-.394-1.904-.591-2.952-.591-2.279 0-4.215.858-5.809 2.573-1.594 1.716-2.391 3.915-2.391 6.601 0 2.589.824 4.754 2.471 6.497 1.648 1.742 3.601 2.613 5.857 2.613 1.005 0 1.939-.179 2.8-.536.861-.357 1.72-.94 2.576-1.75v1.838h4.386v-17.389h-4.386v1.918zm-1.168 10.492c-.907.954-2.049 1.43-3.426 1.43-1.335 0-2.458-.485-3.371-1.454-.913-.97-1.369-2.206-1.369-3.708 0-1.492.448-2.714 1.345-3.668.897-.954 2.023-1.431 3.379-1.431 1.388 0 2.535.469 3.442 1.407.907.938 1.361 2.163 1.361 3.676 0 1.546-.454 2.795-1.361 3.748zm13.683-12.186c-.675.447-1.215 1.103-1.622 1.966v-2.19h-3.759v17.389h4.354v-7.032l-.016-.847c0-2.429.233-4.06.699-4.891.466-.831 1.036-1.246 1.711-1.246.332 0 .755.128 1.269.384l1.365-3.756c-.621-.298-1.216-.447-1.783-.447-.804-.002-1.543.222-2.218.67zm-37.264-2.606c2.675 0 5.082 1.125 7.223 3.375l3.146-2.983c-1.307-1.51-2.862-2.676-4.667-3.495-1.805-.818-3.682-1.228-5.632-1.228-2.292 0-4.431.554-6.418 1.662-1.986 1.109-3.513 2.573-4.578 4.396s-1.598 3.905-1.598 6.249c0 3.623 1.17 6.593 3.51 8.911 2.34 2.317 5.347 3.476 9.021 3.476 1.992 0 3.765-.328 5.318-.983 1.553-.656 3.202-1.831 4.948-3.526l-3.049-3.166c-1.295 1.28-2.483 2.162-3.563 2.648-1.081.485-2.274.728-3.579.728-1.53 0-2.922-.346-4.174-1.04-1.252-.693-2.221-1.648-2.905-2.863-.685-1.216-1.027-2.608-1.027-4.176 0-2.251.773-4.144 2.32-5.68 1.544-1.537 3.446-2.305 5.704-2.305zm96.902 19.771h4.386v-24.102h-4.386v24.102zm15.28-17.837c-2.592 0-4.747.877-6.466 2.629-1.72 1.753-2.579 3.955-2.579 6.609 0 2.589.862 4.744 2.587 6.465 1.724 1.721 3.957 2.581 6.699 2.581 1.767 0 3.293-.312 4.578-.935 1.285-.623 2.388-1.585 3.31-2.885l-3.696-1.726c-1.178 1.14-2.586 1.71-4.225 1.71-1.371 0-2.498-.365-3.382-1.095-.883-.729-1.427-1.713-1.631-2.949h14.089l.016-.831c0-2.877-.862-5.192-2.586-6.944-1.723-1.752-3.962-2.629-6.714-2.629zm-4.611 6.969c.493-1.076 1.03-1.828 1.609-2.254.923-.682 1.996-1.023 3.219-1.023 1.127 0 2.116.304 2.969.911.853.608 1.424 1.396 1.714 2.365h-9.511v.001zm-53.156-13.234c-2.208 0-4.268.551-6.181 1.654-1.913 1.103-3.416 2.597-4.509 4.483-1.093 1.886-1.639 3.953-1.639 6.201 0 3.356 1.174 6.255 3.521 8.695 2.347 2.44 5.294 3.66 8.842 3.66 3.386 0 6.267-1.188 8.64-3.564 2.374-2.376 3.561-5.279 3.561-8.71 0-3.463-1.203-6.398-3.609-8.806-2.408-2.409-5.283-3.613-8.626-3.613zm5.483 18.061c-1.501 1.534-3.318 2.301-5.451 2.301-1.888 0-3.56-.591-5.018-1.774-1.876-1.513-2.814-3.569-2.814-6.169 0-2.333.745-4.256 2.235-5.77 1.49-1.513 3.329-2.27 5.517-2.27 2.165 0 4.004.776 5.516 2.326 1.512 1.55 2.268 3.444 2.268 5.682-.001 2.248-.751 4.139-2.253 5.674zm68.72-11.348v-6.713h-4.386v6.713h-2.603v3.756h2.603v13.633h4.386v-13.633h2.603v-3.756h-2.603zm-36.182-6.713h-4.386v6.713h-8.66v8.519c0 1.641-.091 2.712-.273 3.213-.247.671-.625 1.18-1.136 1.526-.51.347-1.13.519-1.86.519-.73 0-1.345-.176-1.844-.527-.499-.352-.862-.844-1.087-1.479-.225-.633-.338-1.766-.338-3.396v-8.375h-4.434v7.24c0 2.781.171 4.699.514 5.754.482 1.524 1.315 2.712 2.498 3.564 1.183.853 2.734 1.279 4.651 1.279 1.767 0 3.224-.365 4.37-1.095s2.013-1.776 2.603-3.141c.482-1.119.722-3.196.722-6.233v-3.612h4.275v13.633h4.386v-13.633h2.603v-3.756h-2.603v-6.713h-.001z"/></svg>